# AST/ASF file generated using VICON BodyLanguage
# -----------------------------------------------
:version 1.10
:name VICON
:units
  mass 1.0
  length 0.45
  angle deg
:documentation
   .ast/.asf automatically generated from VICON data using
   VICON BodyBuilder and BodyLanguage model FoxedUp or BRILLIANT.MOD
:root
   order TX TY TZ RX RY RZ
   axis XYZ
   position 0 0 0  
   orientation 0 0 0 
:bonedata
  begin
     id 1 
     name lhipjoint
     direction 0.577973 -0.728611 0.367523 
     length 2.48544 
     axis 0 0 0  XYZ
  end
  begin
     id 2 
     name lfemur
     direction 0.34202 -0.939693 0  
     length 7.1921  
     axis 0 0 20  XYZ
    dof rx ry rz
    limits (-160.0 20.0)
           (-70.0 70.0)
           (-60.0 70.0)
  end
  begin
     id 3 
     name ltibia
     direction 0.34202 -0.939693 0   
     length 7.71059   
     axis 0 0 20   XYZ
    dof rx
    limits (-10.0 170.0)
  end
  begin
     id 4 
     name lfoot
     direction 0.089538 -0.246004 0.965124   
     length 2.19909   
     axis -90 7.62852e-016 20   XYZ
    dof rx rz
    limits (-45.0 90.0)
           (-70.0 20.0)
  end
  begin
     id 5 
     name ltoes
     direction 1.53544e-011 -4.21829e-011 1   
     length 1.10116   
     axis -90 7.62852e-016 20   XYZ
    dof rx
    limits (-90.0 20.0)
  end
  begin
     id 6 
     name rhipjoint
     direction -0.554414 -0.743062 0.374812   
     length 2.4371  
     axis 0 0 0  XYZ 
  end
  begin
     id 7 
     name rfemur
     direction -0.34202 -0.939693 0   
     length 7.47254   
     axis 0 0 -20   XYZ
    dof rx ry rz
    limits (-160.0 20.0)
           (-70.0 70.0)
           (-70.0 60.0)
  end
  begin
     id 8 
     name rtibia
     direction -0.34202 -0.939693 0   
     length 7.65855   
     axis 0 0 -20   XYZ
    dof rx
    limits (-10.0 170.0)
 end
 begin
     id 9 
     name rfoot
     direction -0.133779 -0.367555 0.92033   
     length 2.43006  
     axis -90 -7.62852e-016 -20   XYZ
    dof rx rz
    limits (-45.0 90.0)
           (-20.0 70.0)
  end
  begin
     id 10 
     name rtoes
     direction -1.53563e-011 -4.21889e-011 1   
     length 1.19625   
     axis -90 -7.62852e-016 -20   XYZ
    dof rx
    limits (-90.0 20.0)
  end
  begin
     id 11 
     name lowerback
     direction 0.0249066 0.998043 -0.0573585   
     length 2.08485   
     axis 0 0 0   XYZ
    dof rx ry rz
    limits (-20.0 45.0)
           (-30.0 30.0)
           (-30.0 30.0)
  end
  begin
     id 12 
     name upperback
     direction 0.0237884 0.999673 0.00943178   
     length 2.08515   
     axis 0 0 0   XYZ
    dof rx ry rz
    limits (-20.0 45.0)
           (-30.0 30.0)
           (-30.0 30.0)
  end
  begin
     id 13 
     name thorax
     direction 0.0106671 0.999301 0.0358174   
     length 2.09037   
     axis 0 0 0   XYZ
    dof rx ry rz
    limits (-20.0 45.0)
           (-30.0 30.0)
           (-30.0 30.0)
  end
  begin
     id 14 
     name lowerneck
     direction -0.0580016 0.987052 0.149546   
     length 1.84454   
     axis 0 0 0   XYZ
    dof rx ry rz
    limits (-20.0 45.0)
           (-30.0 30.0)
           (-30.0 30.0)
  end
  begin
     id 15 
     name upperneck
     direction 0.079456 0.981963 -0.171567   
     length 1.88141   
     axis 0 0 0   XYZ
    dof rx ry rz
    limits (-20.0 45.0)
           (-30.0 30.0)
           (-30.0 30.0)
  end
  begin
     id 16
     name head
     direction 0.0262167 0.9967 -0.0768276  
     length 1.89541  
     axis 0 0 0   XYZ
    dof rx ry rz
    limits (-20.0 45.0)
           (-30.0 30.0)
           (-30.0 30.0)
  end
  begin
     id 17 
     name lclavicle
     direction 0.946135 0.322134 -0.0325326  
     length 3.949  
     axis 0 0 0   XYZ
    dof ry rz
    limits (-20.0 10.0)
           (0.0 20.0)
  end
  begin
     id 18 
     name lhumerus
     direction 1 -4.48964e-011 1.94005e-028   
     length 5.10995   
     axis 180 -30 -90   XYZ
    dof rx ry rz
    limits (-60.0 90.0)
           (-90.0 90.0)
           (-90.0 90.0)
  end
  begin
     id 19
     name lradius
     direction 1 -4.48976e-011 2.87852e-027   
     length 3.21207   
     axis 180 -30 -90   XYZ
    dof rx
    limits (-10.0 170.0)
  end
  begin
     id 20
     name lwrist
     direction 1 -4.48963e-011 1.9975e-027   
     length 1.60604   
     axis 2.96054e-016 90 90   XYZ
    dof ry
    limits (-180.0 0.0)
 end
  begin
     id 21 
     name lhand
     direction 1 -4.48919e-011 4.00227e-027   
     length 0.63349   
     axis -2.5488e-015 90 90   XYZ
    dof rx rz
    limits (-90.0 90.0)
           (-45.0 45.0)
  end
  begin
     id 22 
     name lfingers
     direction 1 -4.49037e-011 7.9652e-027   
     length 0.510736   
     axis -5.0975e-015 90 90   XYZ
    dof rx
    limits (0.0 90.0)
  end
  begin
     id 23
     name lthumb
     direction 0.707107 -6.34922e-011 0.707107   
     length 0.733318   
     axis -90 45 -4.48553e-014   XYZ
    dof rx rz
    limits (-45.0 45.0)
           (-45.0 45.0)
  end
  begin
     id 24 
     name rclavicle
     direction -0.940085 0.328911 -0.0897654   
     length 3.93848  
     axis 0 0 0   XYZ 
    dof ry rz
    limits (-10.0 20.0)
           (-20.0 0.0)
  end
  begin
     id 25 
     name rhumerus
     direction -1 -4.48958e-011 3.02044e-027  
     length 5.25109   
     axis 180 30 90   XYZ
    dof rx ry rz
    limits (-90.0 60.0)
           (-90.0 90.0)
           (-90.0 90.0)
  end
  begin
     id 26 
     name rradius
     direction -1 -4.4897e-011 9.78352e-028   
     length 3.28364   
     axis 180 30 90   XYZ
    dof rx
    limits (-10.0 170.0)
  end
  begin
     id 27 
     name rwrist
     direction -1 -4.48943e-011 1.99918e-027   
     length 1.64182   
     axis 2.96054e-016 -90 -90   XYZ
    dof ry
    limits (-180.0 0.0)
  end
  begin
     id 28
     name rhand
     direction -1 -4.49024e-011 3.98478e-027   
     length 0.599745   
     axis -2.5488e-015 -90 -90   XYZ
    dof rx rz
    limits (-90.0 90.0)
           (-45.0 45.0)
  end
  begin
     id 29
     name rfingers
     direction -1 -4.48914e-011 8.00621e-027   
     length 0.48353   
     axis -5.0975e-015 -90 -90   XYZ
    dof rx
    limits (0.0 90.0)
  end
  begin
     id 30
     name rthumb
     direction -0.707107 -6.34992e-011 0.707107   
     length 0.694255   
     axis -90 -45 4.48553e-014   XYZ
    dof rx rz
    limits (-45.0 45.0)
           (-45.0 45.0)
  end
:hierarchy
  begin
    root lhipjoint rhipjoint lowerback
    lhipjoint lfemur
    lfemur ltibia
    ltibia lfoot
    lfoot ltoes
    rhipjoint rfemur
    rfemur rtibia
    rtibia rfoot
    rfoot rtoes
    lowerback upperback
    upperback thorax
    thorax lowerneck lclavicle rclavicle
    lowerneck upperneck
    upperneck head
    lclavicle lhumerus
    lhumerus lradius
    lradius lwrist
    lwrist lhand lthumb
    lhand lfingers
    rclavicle rhumerus
    rhumerus rradius
    rradius rwrist
    rwrist rhand rthumb
    rhand rfingers
  end

#!OML:ASF E:\CV Data\Top Level 1\Subject 1\Session 1\player.ASF
:FULLY-SPECIFIED
:DEGREES
301
root 1.3135 17.7255 -24.6988 13.597 -21.7892 -5.43717
lowerback 9.92715 0.802112 4.52964
upperback 2.23504 1.57992 2.1472
thorax -3.17486 0.742791 -0.513327
lowerneck -16.6075 -3.63338 -9.96397
upperneck 34.0041 -4.68909 6.6125
head 15.031 -2.44377 3.67199
rclavicle 3.19049e-014 -6.24184e-014
rhumerus -17.6415 2.27032 -90.0615
rradius 38.329
rwrist -6.8629
rhand -14.6 6.5593
rfingers 7.12502
rthumb 11.5506 -23.1024
lclavicle 3.19049e-014 -6.24184e-014
lhumerus -26.0115 -4.35561 86.2454
lradius 39.6548
lwrist -14.8672
lhand 6.56013 6.90524
lfingers 7.12502
lthumb 31.8569 34.1398
rfemur -25.2246 -1.55904 25.0252
rtibia 32.7456
rfoot -20.9393 -9.48598
rtoes 2.81164
lfemur -20.2799 9.71605 -14.0315
ltibia 31.0215
lfoot -11.3883 20.718
ltoes 2.66479
302
root 1.27191 17.7152 -24.6855 13.7173 -22.1798 -5.68561
lowerback 10.0335 0.867237 4.80131
upperback 2.27334 1.70044 2.23323
thorax -3.18314 0.799993 -0.592189
lowerneck -16.5414 -3.69757 -10.0195
upperneck 33.859 -4.77646 6.63778
head 14.9607 -2.48305 3.67176
rclavicle 6.91771e-014 1.51076e-014
rhumerus -17.6061 2.18526 -90.0895
rradius 39.1545
rwrist -7.62432
rhand -15.4325 6.93267
rfingers 7.12502
rthumb 10.7475 -22.7724
lclavicle 6.91771e-014 1.51076e-014
lhumerus -26.1184 -3.10424 86.1254
lradius 38.8285
lwrist -15.5131
lhand 4.77296 6.12549
lfingers 7.12502
lthumb 30.1534 33.6849
rfemur -25.178 -1.46044 25.3741
rtibia 32.7235
rfoot -20.7764 -9.19773
rtoes 2.69281
lfemur -20.5947 10.0737 -13.71
ltibia 31.8825
lfoot -11.4946 20.8084
ltoes 2.76412
303
root 1.2301 17.7055 -24.6711 13.8318 -22.5757 -5.93236
lowerback 10.1364 0.942059 5.05416
upperback 2.31648 1.83162 2.31443
thorax -3.18358 0.862815 -0.666796
lowerneck -16.4884 -3.76636 -10.0637
upperneck 33.7188 -4.87474 6.66766
head 14.8971 -2.52475 3.66975
rclavicle 4.95968e-014 2.3059e-014
rhumerus -17.5606 2.10034 -90.0933
rradius 40.0609
rwrist -8.4211
rhand -16.3666 7.31886
rfingers 7.12502
rthumb 9.84647 -22.4309
lclavicle 4.95968e-014 2.3059e-014
lhumerus -26.2048 -1.95865 85.9863
lradius 38.0609
lwrist -16.1619
lhand 3.30313 5.57912
lfingers 7.12502
lthumb 28.7502 33.3856
rfemur -25.1099 -1.38295 25.7241
rtibia 32.6861
rfoot -20.5975 -8.92121
rtoes 2.60194
lfemur -20.9234 10.3761 -13.3858
ltibia 32.7947
lfoot -11.5273 20.9333
ltoes 2.80694
304
root 1.18802 17.6973 -24.6554 13.9353 -22.9825 -6.1659
lowerback 10.2433 1.02494 5.26791
upperback 2.35912 1.97008 2.39432
thorax -3.18691 0.929461 -0.722027
lowerneck -16.45 -3.83465 -10.1
upperneck 33.5908 -4.97331 6.69624
head 14.8426 -2.56579 3.66621
rclavicle -7.85199e-015 -3.45885e-014
rhumerus -17.5042 2.04709 -90.0715
rradius 41.0411
rwrist -9.20996
rhand -17.3969 7.74919
rfingers 7.12502
rthumb 8.85232 -22.0451
lclavicle -7.85199e-015 -3.45885e-014
lhumerus -26.3029 -0.954992 85.8537
lradius 37.4121
lwrist -16.5867
lhand 2.14359 5.34957
lfingers 7.12502
lthumb 27.6419 33.3388
rfemur -25.0157 -1.31096 26.0551
rtibia 32.6386
rfoot -20.4111 -8.62875
rtoes 2.68483
lfemur -21.2468 10.618 -13.0709
ltibia 33.7325
lfoot -11.4754 21.0898
ltoes 2.83291
305
root 1.14567 17.6914 -24.6385 14.0253 -23.4007 -6.37703
lowerback 10.3546 1.11568 5.43797
upperback 2.40294 2.11473 2.46752
thorax -3.19179 0.999466 -0.760822
lowerneck -16.4265 -3.90208 -10.1291
upperneck 33.4715 -5.0727 6.72775
head 14.7957 -2.60583 3.66279
rclavicle 5.57591e-014 7.55382e-015
rhumerus -17.4207 2.02018 -90.0289
rradius 42.0826
rwrist -9.92377
rhand -18.5359 8.23323
rfingers 7.12502
rthumb 7.75309 -21.6046
lclavicle 5.57591e-014 7.55382e-015
lhumerus -26.4088 -0.143809 85.7415
lradius 36.8953
lwrist -16.6534
lhand 1.17773 5.42503
lfingers 7.12502
lthumb 26.7179 33.5588
rfemur -24.9002 -1.23814 26.3559
rtibia 32.5879
rfoot -20.2109 -8.30552
rtoes 3.01983
lfemur -21.5617 10.7773 -12.7741
ltibia 34.6869
lfoot -11.326 21.2949
ltoes 2.86605
306
root 1.10309 17.6878 -24.62 14.0933 -23.8357 -6.557
lowerback 10.467 1.21197 5.55567
upperback 2.44954 2.2612 2.535
thorax -3.19561 1.07081 -0.776788
lowerneck -16.4082 -3.96427 -10.158
upperneck 33.3547 -5.16394 6.75992
head 14.7504 -2.64233 3.66116
rclavicle 1.82882e-014 2.38542e-014
rhumerus -17.3047 2.03181 -89.9657
rradius 43.1773
rwrist -10.5044
rhand -19.7816 8.7562
rfingers 7.12502
rthumb 6.55067 -21.1225
lclavicle 1.82882e-014 2.38542e-014
lhumerus -26.5325 0.468061 85.6637
lradius 36.524
lwrist -16.3192
lhand 0.310935 5.79228
lfingers 7.12502
lthumb 25.8882 34.0499
rfemur -24.7553 -1.14137 26.6083
rtibia 32.5432
rfoot -20.0103 -7.93147
rtoes 3.78767
lfemur -21.8589 10.8846 -12.5076
ltibia 35.6515
lfoot -11.0895 21.523
ltoes 2.92309
307
root 1.06045 17.6845 -24.6 14.1388 -24.2831 -6.69913
lowerback 10.5779 1.30723 5.62188
upperback 2.49747 2.40056 2.59435
thorax -3.19916 1.13905 -0.77179
lowerneck -16.3874 -4.01363 -10.1908
upperneck 33.2348 -5.23504 6.79278
head 14.7012 -2.67076 3.66401
rclavicle 4.37326e-014 -2.18663e-014
rhumerus -17.1477 2.07895 -89.888
rradius 44.309
rwrist -10.9148
rhand -21.0925 9.31814
rfingers 7.12502
rthumb 5.28508 -20.596
lclavicle 4.37326e-014 -2.18663e-014
lhumerus -26.6797 0.888281 85.6167
lradius 36.2764
lwrist -15.6464
lhand -0.695791 6.27836
lfingers 7.12502
lthumb 24.9238 34.6732
rfemur -24.6037 -1.04313 26.8197
rtibia 32.509
rfoot -19.7808 -7.56092
rtoes 4.61506
lfemur -22.15 11.0311 -12.2842
ltibia 36.6288
lfoot -10.7893 21.6831
ltoes 3.03052
308
root 1.01792 17.6816 -24.5782 14.1631 -24.7397 -6.80684
lowerback 10.6781 1.39867 5.64812
upperback 2.54635 2.52955 2.64622
thorax -3.1977 1.20261 -0.75089
lowerneck -16.3466 -4.04784 -10.2332
upperneck 33.1036 -5.28215 6.82647
head 14.6398 -2.69038 3.67292
rclavicle -3.61788e-014 2.82274e-014
rhumerus -16.9462 2.14312 -89.7949
rradius 45.4656
rwrist -11.1406
rhand -22.4267 9.89328
rfingers 7.12502
rthumb 3.99671 -20.049
lclavicle -3.61788e-014 2.82274e-014
lhumerus -26.8607 1.13326 85.5965
lradius 36.1463
lwrist -14.7486
lhand -1.83734 6.80161
lfingers 7.12502
lthumb 23.8294 35.3436
rfemur -24.4427 -0.919018 26.9894
rtibia 32.4854
rfoot -19.5529 -7.21273
rtoes 5.47337
lfemur -22.4335 11.2024 -12.1006
ltibia 37.613
lfoot -10.4505 21.7862
ltoes 3.2214
309
root 0.975555 17.6789 -24.555 14.1721 -25.1978 -6.88601
lowerback 10.7697 1.48765 5.6454
upperback 2.59638 2.65114 2.68832
thorax -3.1917 1.26286 -0.723007
lowerneck -16.3008 -4.07102 -10.2731
upperneck 32.9664 -5.31242 6.85662
head 14.5727 -2.70302 3.68273
rclavicle -2.98177e-014 -2.5842e-014
rhumerus -16.6989 2.19072 -89.6865
rradius 46.6533
rwrist -11.2119
rhand -23.7479 10.4202
rfingers 7.12502
rthumb 2.72082 -19.5421
lclavicle -2.98177e-014 -2.5842e-014
lhumerus -27.0679 1.21138 85.5917
lradius 36.1228
lwrist -13.7891
lhand -2.85495 7.38442
lfingers 7.12502
lthumb 22.8532 36.0504
rfemur -24.2742 -0.754392 27.126
rtibia 32.4631
rfoot -19.3398 -6.9162
rtoes 6.21587
lfemur -22.7173 11.389 -11.9503
ltibia 38.6023
lfoot -10.0932 21.8387
ltoes 3.49453
310
root 0.933544 17.6776 -24.5298 14.1642 -25.6541 -6.95073
lowerback 10.8628 1.57464 5.6354
upperback 2.64752 2.76895 2.72089
thorax -3.18551 1.3213 -0.700683
lowerneck -16.2603 -4.08408 -10.2989
upperneck 32.8326 -5.3278 6.87576
head 14.5058 -2.70897 3.68817
rclavicle -5.78463e-014 -4.85035e-014
rhumerus -16.415 2.19009 -89.5605
rradius 47.8799
rwrist -11.1776
rhand -24.97 10.8999
rfingers 7.12502
rthumb 1.5405 -19.0743
lclavicle -5.78463e-014 -4.85035e-014
lhumerus -27.3044 1.14571 85.5901
lradius 36.1875
lwrist -12.9104
lhand -3.68652 7.96448
lfingers 7.12502
lthumb 22.055 36.7268
rfemur -24.0812 -0.531535 27.2408
rtibia 32.4313
rfoot -19.1632 -6.69834
rtoes 6.75325
lfemur -22.9855 11.5589 -11.8182
ltibia 39.5832
lfoot -9.72372 21.8769
ltoes 3.88086
311
root 0.891988 17.6774 -24.5034 14.1487 -26.0994 -7.01321
lowerback 10.9577 1.65608 5.62968
upperback 2.69601 2.88004 2.749
thorax -3.18312 1.37624 -0.684809
lowerneck -16.209 -4.0871 -10.3194
upperneck 32.6946 -5.32884 6.88916
head 14.4328 -2.70904 3.69273
rclavicle 1.23246e-014 1.86858e-014
rhumerus -16.0931 2.11478 -89.4175
rradius 49.136
rwrist -11.0933
rhand -26.1033 11.2732
rfingers 7.12502
rthumb 0.445945 -18.7061
lclavicle 1.23246e-014 1.86858e-014
lhumerus -27.5755 0.969723 85.582
lradius 36.3218
lwrist -12.2444
lhand -4.24599 8.50874
lfingers 7.12502
lthumb 21.5177 37.3335
rfemur -23.8661 -0.253391 27.3505
rtibia 32.382
rfoot -19.0263 -6.57566
rtoes 7.02955
lfemur -23.2473 11.6906 -11.6908
ltibia 40.5512
lfoot -9.34471 21.9102
ltoes 4.40355
312
root 0.850916 17.6785 -24.4755 14.1299 -26.5243 -7.07899
lowerback 11.0534 1.73101 5.63478
upperback 2.7393 2.98404 2.77572
thorax -3.18639 1.42741 -0.675792
lowerneck -16.232 -4.08581 -10.2955
upperneck 32.6338 -5.31695 6.85294
head 14.4069 -2.70454 3.67314
rclavicle 3.3197e-014 1.35174e-014
rhumerus -15.7435 1.95434 -89.2533
rradius 50.4297
rwrist -11.0306
rhand -27.0834 11.5455
rfingers 7.12502
rthumb -0.50065 -18.4337
lclavicle 3.3197e-014 1.35174e-014
lhumerus -27.8815 0.712079 85.5614
lradius 36.5018
lwrist -11.881
lhand -4.52373 8.96017
lfingers 7.12502
lthumb 21.251 37.8152
rfemur -23.6253 0.0808859 27.4607
rtibia 32.3125
rfoot -18.9269 -6.56108
rtoes 7.05377
lfemur -23.5036 11.7699 -11.5611
ltibia 41.5
lfoot -8.96468 21.9373
ltoes 5.10473
313
root 0.8105 17.6804 -24.4464 14.114 -26.9212 -7.15414
lowerback 11.1447 1.79572 5.65948
upperback 2.77888 3.07664 2.80292
thorax -3.19067 1.47274 -0.675757
lowerneck -16.3218 -4.07901 -10.2393
upperneck 32.6391 -5.29072 6.77871
head 14.4219 -2.69479 3.63629
rclavicle -1.31198e-014 -1.63003e-014
rhumerus -15.3496 1.69655 -89.072
rradius 51.7361
rwrist -11.0194
rhand -27.9015 11.7303
rfingers 7.12502
rthumb -1.29076 -18.2455
lclavicle -1.31198e-014 -1.63003e-014
lhumerus -28.2148 0.4015 85.5219
lradius 36.7116
lwrist -11.8506
lhand -4.58016 9.2678
lfingers 7.12502
lthumb 21.1967 38.1289
rfemur -23.3675 0.437988 27.5834
rtibia 32.2269
rfoot -18.8601 -6.63962
rtoes 6.87708
lfemur -23.7657 11.8073 -11.4244
ltibia 42.4314
lfoot -8.57958 21.938
ltoes 5.96003
314
root 0.770666 17.6833 -24.4157 14.1001 -27.2827 -7.2324
lowerback 11.2252 1.84644 5.69615
upperback 2.80976 3.15212 2.83565
thorax -3.19858 1.50936 -0.674286
lowerneck -16.4572 -4.0653 -10.1677
upperneck 32.7051 -5.24689 6.67262
head 14.4713 -2.68012 3.58819
rclavicle 4.05521e-014 1.15295e-014
rhumerus -14.9254 1.36376 -88.8678
rradius 53.0547
rwrist -11.0891
rhand -28.6059 11.8265
rfingers 7.12502
rthumb -1.97105 -18.1441
lclavicle 4.05521e-014 1.15295e-014
lhumerus -28.5829 0.0739955 85.4658
lradius 36.9343
lwrist -12.1413
lhand -4.45414 9.39496
lfingers 7.12502
lthumb 21.3178 38.2424
rfemur -23.0925 0.816875 27.7074
rtibia 32.1404
rfoot -18.8325 -6.78716
rtoes 6.73348
lfemur -24.0339 11.7974 -11.2877
ltibia 43.3397
lfoot -8.19918 21.8965
ltoes 6.92801
315
root 0.731483 17.6867 -24.3834 14.0844 -27.6046 -7.3051
lowerback 11.2893 1.88368 5.74792
upperback 2.83881 3.21031 2.86458
thorax -3.19917 1.53756 -0.682385
lowerneck -16.6139 -4.04847 -10.0918
upperneck 32.793 -5.19715 6.56168
head 14.5346 -2.66312 3.53887
rclavicle -3.12092e-014 -1.03368e-014
rhumerus -14.4479 0.946964 -88.6516
rradius 54.3524
rwrist -11.2054
rhand -29.1306 11.8892
rfingers 7.12502
rthumb -2.47786 -18.0761
lclavicle -3.12092e-014 -1.03368e-014
lhumerus -28.9608 -0.265856 85.3846
lradius 37.1608
lwrist -12.6885
lhand -4.26683 9.30856
lfingers 7.12502
lthumb 21.4977 38.1356
rfemur -22.8104 1.16096 27.8335
rtibia 32.0566
rfoot -18.8256 -6.9711
rtoes 6.55739
lfemur -24.3097 11.783 -11.1605
ltibia 44.2204
lfoot -7.85866 21.7592
ltoes 7.95899
